<svg width="33" height="41" viewBox="0 0 33 41" fill="none" xmlns="http://www.w3.org/2000/svg">
<path d="M22.7541 0.174805H6.47398C4.09552 0.174805 2.15979 2.08637 2.15979 4.43208V20.1748H1.73834C0.778414 20.1748 0 20.9423 0 21.8904V32.2943C0 33.2424 0.778414 34.0098 1.73834 34.0098H2.15979V35.9175C2.15979 38.2658 4.09552 40.1748 6.47389 40.1748H28.6872C31.0643 40.1748 33 38.2657 33 35.9175V10.2507L22.7541 0.174805ZM2.8759 23.3194C3.48349 23.224 4.27501 23.1703 5.1106 23.1703C6.49911 23.1703 7.39952 23.4162 8.10504 23.9405C8.86429 24.4975 9.34122 25.3867 9.34122 26.6603C9.34122 28.041 8.83175 28.9941 8.12623 29.5826C7.35639 30.2139 6.18452 30.5135 4.75287 30.5135C3.89569 30.5135 3.2881 30.4599 2.87599 30.4063V23.3194H2.8759ZM28.6873 37.5676H6.47398C5.55298 37.5676 4.80306 36.8276 4.80306 35.9175V34.0098H25.5106C26.4705 34.0098 27.2491 33.2424 27.2491 32.2943V21.8904C27.2491 20.9423 26.4706 20.1748 25.5106 20.1748H4.80306V4.43208C4.80306 3.52463 5.55298 2.78459 6.47398 2.78459L21.7657 2.76883V8.34672C21.7657 9.97596 23.1053 11.2991 24.7573 11.2991L30.2945 11.2835L30.3568 35.9174C30.3569 36.8276 29.6082 37.5676 28.6873 37.5676ZM10.0937 26.885C10.0937 24.7225 11.493 23.1063 13.652 23.1063C15.8979 23.1063 17.1235 24.7656 17.1235 26.7568C17.1235 29.1222 15.67 30.5566 13.5328 30.5566C11.3632 30.5566 10.0937 28.9406 10.0937 26.885ZM21.9551 29.1968C22.454 29.1968 23.0071 29.0895 23.333 28.9614L23.5821 30.235C23.2787 30.3854 22.595 30.5462 21.706 30.5462C19.1779 30.5462 17.8761 28.9941 17.8761 26.9388C17.8761 24.4766 19.6556 23.1064 21.8681 23.1064C22.7255 23.1064 23.376 23.2776 23.6689 23.4267L23.3329 24.7225C22.9964 24.5825 22.53 24.4544 21.9444 24.4544C20.6313 24.4544 19.6118 25.2364 19.6118 26.842C19.6119 28.2868 20.4796 29.1968 21.9551 29.1968Z" fill="#377CFD"/>
</svg>
