<svg width="102" height="102" viewBox="0 0 102 102" fill="none" xmlns="http://www.w3.org/2000/svg">
<path d="M39.6602 64.4961L39.6602 77.5592L26.5971 77.5592L26.5971 64.4961L39.6602 64.4961Z" fill="#3998FF"/>
<path d="M88.4404 38.3652L88.4404 51.4283L75.3774 51.4283L75.3774 38.3652L88.4404 38.3652Z" fill="#3998FF"/>
<path d="M62.3076 38.3701L62.3076 51.4274L49.2504 51.4274L49.2504 38.3701L62.3076 38.3701Z" fill="#D763FF"/>
<rect x="39.6592" y="51.4443" width="13.0747" height="13.0747" transform="rotate(90 39.6592 51.4443)" fill="#8A88FF"/>
<rect x="26.5967" y="38.3818" width="13.0747" height="13.0747" transform="rotate(90 26.5967 38.3818)" fill="#FFB800"/>
<rect x="75.3818" y="51.4277" width="13.0747" height="13.0747" transform="rotate(90 75.3818 51.4277)" fill="#FFB800"/>
<path d="M75.3818 38.3525L75.3818 51.4273L62.3071 51.4273L62.3071 38.3525L75.3818 38.3525Z" fill="#8A88FF"/>
<path d="M39.665 38.375L39.665 51.4497L26.5903 51.4497L26.5903 38.375L39.665 38.375Z" fill="#FF7979"/>
<path d="M75.3818 64.5029L75.3818 77.5777L62.3071 77.5777L62.3071 64.5029L75.3818 64.5029Z" fill="#FF7979"/>
<rect x="52.7275" y="64.502" width="13.0747" height="13.0747" transform="rotate(90 52.7275 64.502)" fill="#19E6F3"/>
<path d="M39.665 51.4385L39.665 64.5132L26.5903 64.5132L26.5903 51.4385L39.665 51.4385Z" fill="#3A36FF"/>
</svg>
