<svg width="708" height="781" viewBox="0 0 708 781" fill="none" xmlns="http://www.w3.org/2000/svg">
<path d="M0.140625 254.78V526.154C0.140625 568.653 22.7963 607.925 59.5932 629.164L294.537 764.84C331.334 786.08 376.667 786.08 413.464 764.84L648.408 629.164C685.205 607.925 707.86 568.653 707.86 526.154V254.78C707.86 212.28 685.205 173.008 648.408 151.769L413.464 16.0716C376.667 -5.16766 331.334 -5.16766 294.537 16.0716L59.5932 151.769C22.7963 173.008 0.140625 212.28 0.140625 254.78Z" fill="url(#paint0_linear_194_46)"/>
<path d="M296.772 427.44L296.772 494.126L230.086 494.126L230.086 427.44L296.772 427.44Z" fill="#3998FF"/>
<path d="M545.778 294.046L545.778 360.732L479.092 360.732L479.092 294.046L545.778 294.046Z" fill="#3998FF"/>
<path d="M412.369 294.074L412.369 360.73L345.713 360.73L345.713 294.074L412.369 294.074Z" fill="#D763FF"/>
<rect x="296.763" y="360.814" width="66.7455" height="66.7455" transform="rotate(90 296.763 360.814)" fill="#8A88FF"/>
<rect x="230.078" y="294.129" width="66.7455" height="66.7455" transform="rotate(90 230.078 294.129)" fill="#FFB800"/>
<rect x="479.132" y="360.731" width="66.7455" height="66.7455" transform="rotate(90 479.132 360.731)" fill="#FFB800"/>
<path d="M479.132 293.985L479.132 360.731L412.386 360.731L412.386 293.985L479.132 293.985Z" fill="#8A88FF"/>
<path d="M296.782 294.097L296.782 360.843L230.037 360.843L230.037 294.097L296.782 294.097Z" fill="#FF7979"/>
<path d="M479.132 427.477L479.132 494.222L412.386 494.222L412.386 427.477L479.132 427.477Z" fill="#FF7979"/>
<rect x="363.478" y="427.472" width="66.7455" height="66.7455" transform="rotate(90 363.478 427.472)" fill="#19E6F3"/>
<path d="M296.782 360.786L296.782 427.531L230.037 427.531L230.037 360.786L296.782 360.786Z" fill="#3A36FF"/>
<defs>
<linearGradient id="paint0_linear_194_46" x1="63.3585" y1="570.669" x2="722.657" y2="162.121" gradientUnits="userSpaceOnUse">
<stop stop-color="#0030AC"/>
<stop offset="1" stop-color="#850101"/>
</linearGradient>
</defs>
</svg>
