<svg width="2063" height="350" viewBox="0 0 2063 350" fill="none" xmlns="http://www.w3.org/2000/svg">
<g clip-path="url(#clip0_207_2)">
<path d="M861.398 123.939L762.945 254.199H859.884V301.154H709.023V254.199L806.871 124.242L709.023 124.544V76.9842H861.398V123.939Z" fill="#213053"/>
<path d="M1035.43 240.87H925.167C926.379 249.353 930.115 255.613 936.376 259.652C942.838 263.489 950.31 265.408 958.793 265.408C973.939 265.408 984.643 259.349 990.903 247.232L1029.68 262.379C1024.43 275.708 1015.44 286.209 1002.72 293.884C989.995 301.356 975.454 305.092 959.095 305.092C947.786 305.092 937.385 303.173 927.893 299.336C918.402 295.499 910.222 290.046 903.356 282.978C896.49 275.91 891.138 267.528 887.301 257.835C883.463 247.939 881.545 237.033 881.545 225.118C881.545 213.001 883.463 202.095 887.301 192.401C891.138 182.506 896.389 174.023 903.053 166.955C909.919 159.887 918.099 154.434 927.591 150.597C937.284 146.76 947.887 144.841 959.398 144.841C970.91 144.841 981.311 146.76 990.6 150.597C999.89 154.434 1007.87 159.887 1014.53 166.955C1021.2 174.023 1026.35 182.506 1029.98 192.401C1033.62 202.297 1035.43 213.304 1035.43 225.421V240.87ZM987.874 209.063C987.066 200.379 984.037 193.916 978.786 189.675C973.737 185.434 966.972 183.313 958.49 183.313C950.008 183.313 942.939 185.535 937.284 189.978C931.832 194.219 928.196 200.58 926.379 209.063H987.874Z" fill="#213053"/>
<path d="M1059.27 72.7431H1106.23V301.154H1059.27V72.7431Z" fill="#213053"/>
<path d="M1227.2 188.463H1198.72V301.154H1152.68V188.463H1123.9V149.688H1152.68V102.733H1198.72V149.688H1227.2V188.463Z" fill="#213053"/>
<path d="M1338.2 301.154C1337.8 299.336 1337.39 297.418 1336.99 295.398C1336.79 293.177 1336.48 290.854 1336.08 288.431C1332.04 293.278 1326.49 297.317 1319.42 300.548C1312.35 303.577 1303.97 305.092 1294.28 305.092C1286.2 305.092 1278.73 303.88 1271.86 301.457C1265.19 299.235 1259.44 296.004 1254.59 291.763C1249.74 287.522 1246.01 282.372 1243.38 276.313C1240.76 270.053 1239.44 262.984 1239.44 255.108C1239.44 239.962 1244.29 228.349 1253.99 220.271C1263.68 211.991 1277.11 207.851 1294.28 207.851H1334.87V203.004C1334.87 195.936 1332.55 190.685 1327.9 187.251C1323.26 183.818 1317 182.102 1309.12 182.102C1294.17 182.102 1283.27 188.564 1276.4 201.489L1242.78 182.405C1256.31 157.362 1279.33 144.841 1311.85 144.841C1331.84 144.841 1348.2 149.991 1360.92 160.29C1373.85 170.186 1380.31 187.15 1380.31 211.183V265.105C1380.31 273.587 1380.61 281.16 1381.22 287.825C1381.82 294.287 1382.53 298.73 1383.34 301.154H1338.2ZM1335.17 238.75H1305.79C1299.53 238.75 1294.78 240.164 1291.55 242.991C1288.52 245.818 1287.01 249.655 1287.01 254.502C1287.01 265.206 1293.97 270.558 1307.91 270.558C1314.57 270.558 1320.73 268.639 1326.39 264.802C1332.24 260.763 1335.17 252.887 1335.17 241.173V238.75Z" fill="#213053"/>
<path d="M1569.78 123.636H1508.89V301.154H1459.82V123.636H1398.63V76.9842H1569.78V123.636Z" fill="#213053"/>
<path d="M1708.89 240.87H1598.62C1599.83 249.353 1603.57 255.613 1609.83 259.652C1616.29 263.489 1623.76 265.408 1632.24 265.408C1647.39 265.408 1658.09 259.349 1664.36 247.232L1703.13 262.379C1697.88 275.708 1688.89 286.209 1676.17 293.884C1663.45 301.356 1648.91 305.092 1632.55 305.092C1621.24 305.092 1610.84 303.173 1601.35 299.336C1591.85 295.499 1583.67 290.046 1576.81 282.978C1569.94 275.91 1564.59 267.528 1560.75 257.835C1556.92 247.939 1555 237.033 1555 225.118C1555 213.001 1556.92 202.095 1560.75 192.401C1564.59 182.506 1569.84 174.023 1576.51 166.955C1583.37 159.887 1591.55 154.434 1601.04 150.597C1610.74 146.76 1621.34 144.841 1632.85 144.841C1644.36 144.841 1654.76 146.76 1664.05 150.597C1673.34 154.434 1681.32 159.887 1687.98 166.955C1694.65 174.023 1699.8 182.506 1703.43 192.401C1707.07 202.297 1708.89 213.304 1708.89 225.421V240.87ZM1661.33 209.063C1660.52 200.379 1657.49 193.916 1652.24 189.675C1647.19 185.434 1640.42 183.313 1631.94 183.313C1623.46 183.313 1616.39 185.535 1610.74 189.978C1605.28 194.219 1601.65 200.58 1599.83 209.063H1661.33Z" fill="#213053"/>
<path d="M1805.73 144.841C1823.71 144.841 1839.16 149.385 1852.08 158.473C1865.01 167.157 1873.49 178.87 1877.53 193.613L1837.54 209.365C1835.52 202.701 1831.68 197.349 1826.03 193.31C1820.58 189.271 1814.21 187.251 1806.94 187.251C1796.44 187.251 1788.26 190.685 1782.41 197.551C1776.55 204.418 1773.62 213.708 1773.62 225.421C1773.62 237.134 1776.55 246.323 1782.41 252.988C1788.46 259.45 1796.64 262.682 1806.94 262.682C1814.42 262.682 1820.98 260.763 1826.63 256.926C1832.29 253.089 1836.13 247.939 1838.15 241.476L1877.53 256.017C1873.08 270.76 1864.3 282.675 1851.17 291.763C1838.04 300.649 1822.9 305.092 1805.73 305.092C1794.02 305.092 1783.21 303.173 1773.32 299.336C1763.62 295.499 1755.34 290.046 1748.48 282.978C1741.61 275.91 1736.26 267.528 1732.42 257.835C1728.58 247.939 1726.67 237.134 1726.67 225.421C1726.67 213.304 1728.58 202.297 1732.42 192.401C1736.26 182.506 1741.61 174.023 1748.48 166.955C1755.34 159.887 1763.62 154.434 1773.32 150.597C1783.21 146.76 1794.02 144.841 1805.73 144.841Z" fill="#213053"/>
<path d="M2051.39 207.548V301.154H2004.74V218.756C2004.74 205.831 2001.92 197.45 1996.26 193.613C1990.61 189.372 1984.55 187.251 1978.08 187.251C1970.81 187.251 1963.95 189.271 1957.49 193.31C1951.02 197.349 1947.79 205.629 1947.79 218.151V301.154H1901.14V72.7431H1948.09V160.593C1952.54 155.746 1958.29 151.909 1965.36 149.082C1972.63 146.255 1980.31 144.841 1988.38 144.841C2009.19 144.841 2024.84 150.395 2035.34 161.502C2046.04 172.61 2051.39 187.958 2051.39 207.548Z" fill="#213053"/>
<path d="M201.271 229.038L201.271 324.184L106.125 324.184L106.125 229.038L201.271 229.038Z" fill="#3998FF"/>
<path d="M556.565 38.7108L556.565 133.857L461.419 133.857L461.419 38.7108L556.565 38.7108Z" fill="#3998FF"/>
<path d="M366.224 38.7526L366.224 133.857L271.12 133.857L271.12 38.7526L366.224 38.7526Z" fill="#D763FF"/>
<rect x="201.261" y="133.975" width="95.2314" height="95.2314" transform="rotate(90 201.261 133.975)" fill="#8A88FF"/>
<rect x="106.117" y="38.8297" width="95.2314" height="95.2314" transform="rotate(90 106.117 38.8297)" fill="#FFB800"/>
<rect x="461.455" y="133.857" width="95.2314" height="95.2314" transform="rotate(90 461.455 133.857)" fill="#FFB800"/>
<path d="M461.455 38.6256L461.455 133.857L366.224 133.857L366.224 38.6256L461.455 38.6256Z" fill="#8A88FF"/>
<path d="M201.305 38.7855L201.305 134.017L106.073 134.017L106.073 38.7855L201.305 38.7855Z" fill="#FF7979"/>
<path d="M461.455 229.089L461.455 324.32L366.224 324.32L366.224 229.089L461.455 229.089Z" fill="#FF7979"/>
<rect x="296.45" y="229.082" width="95.2314" height="95.2314" transform="rotate(90 296.45 229.082)" fill="#19E6F3"/>
<path d="M201.305 133.934L201.305 229.166L106.073 229.166L106.073 133.934L201.305 133.934Z" fill="#3A36FF"/>
</g>
<defs>
<clipPath id="clip0_207_2">
<rect width="2063" height="349" fill="white" transform="translate(0 0.455994)"/>
</clipPath>
</defs>
</svg>
