<svg width="33" height="41" viewBox="0 0 33 41" fill="none" xmlns="http://www.w3.org/2000/svg">
<path d="M8.17412 25.9098C8.17412 25.2455 7.70702 24.8494 6.88288 24.8494C6.54635 24.8494 6.31843 24.8821 6.19922 24.9135V27.0448C6.34037 27.0762 6.51389 27.0866 6.75308 27.0866C7.63153 27.0866 8.17412 26.6487 8.17412 25.9098Z" fill="#377CFD"/>
<path d="M13.276 24.8713C12.9069 24.8713 12.6684 24.9028 12.5273 24.9354V29.6557C12.6685 29.6884 12.8964 29.6884 13.1025 29.6884C14.5997 29.6988 15.5762 28.8855 15.5762 27.1622C15.5868 25.6636 14.6969 24.8713 13.276 24.8713Z" fill="#377CFD"/>
<path d="M22.7538 0.174805H6.47384C4.09549 0.174805 2.15977 2.08637 2.15977 4.43208V20.1748H1.73841C0.778492 20.1748 0 20.9423 0 21.8904V32.2943C0 33.2424 0.778408 34.0098 1.73841 34.0098H2.15977V35.9175C2.15977 38.2658 4.09549 40.1748 6.47384 40.1748H28.6872C31.064 40.1748 33 38.2657 33 35.9175V10.2507L22.7538 0.174805ZM4.56057 23.7679C5.07004 23.683 5.78615 23.6189 6.79508 23.6189C7.81468 23.6189 8.54139 23.811 9.02967 24.1968C9.49609 24.5603 9.81085 25.1604 9.81085 25.8666C9.81085 26.5726 9.57234 27.1728 9.13837 27.5794C8.57392 28.1038 7.73919 28.3391 6.76271 28.3391C6.54539 28.3391 6.3506 28.3285 6.19826 28.3077V30.8875H4.56057V23.7679ZM28.6872 37.5676H6.47384C5.55294 37.5676 4.80303 36.8276 4.80303 35.9175V34.0098H25.5104C26.4705 34.0098 27.2489 33.2424 27.2489 32.2943V21.8904C27.2489 20.9423 26.4705 20.1748 25.5104 20.1748H4.80303V4.43208C4.80303 3.52463 5.55302 2.78459 6.47384 2.78459L21.7654 2.76883V8.34672C21.7654 9.97596 23.105 11.2991 24.7572 11.2991L30.2943 11.2835L30.3566 35.9174C30.3566 36.8276 29.608 37.5676 28.6872 37.5676ZM10.8669 30.8548V23.7679C11.4743 23.6725 12.266 23.6189 13.1015 23.6189C14.49 23.6189 15.3904 23.8647 16.0959 24.389C16.8551 24.946 17.332 25.8339 17.332 27.1086C17.332 28.4894 16.8226 29.4426 16.117 30.0309C15.3471 30.6624 14.1753 30.9619 12.7436 30.9619C11.8863 30.9619 11.2789 30.9083 10.8669 30.8548ZM22.7062 26.659V27.986H20.0807V30.8875H18.4212V23.6725H22.8904V25.01H20.0807V26.659H22.7062Z" fill="#377CFD"/>
</svg>
