<svg width="80" height="81" viewBox="0 0 80 81" fill="none" xmlns="http://www.w3.org/2000/svg">
<circle opacity="0.1" cx="40" cy="40.1587" r="40" fill="#377CFD"/>
<path d="M35.1117 57.8633C36.1258 59.1188 37.5911 59.9275 39.1939 60.1163C40.7968 60.305 42.4098 59.8589 43.6878 58.8733C44.0798 58.5813 44.4319 58.2413 44.7359 57.8633M23.0015 43.7331V43.2951C23.0672 41.9966 23.4833 40.7401 24.2055 39.659C25.4068 38.3617 26.2324 36.7618 26.5936 35.0309C26.5936 33.6989 26.5936 32.3469 26.7096 31.0129C27.3096 24.5948 33.6557 20.1587 39.9218 20.1587H40.0778C46.3439 20.1587 52.69 24.5948 53.312 31.0129C53.428 32.3469 53.312 33.6989 53.408 35.0309C53.7736 36.7651 54.5976 38.3695 55.794 39.677C56.5241 40.753 56.9401 42.0051 56.9981 43.2971V43.7151C57.0421 45.4551 56.4421 47.1531 55.31 48.4952C53.802 50.0686 51.7748 51.042 49.6039 51.2352C43.2138 51.9212 36.7657 51.9212 30.3756 51.2352C28.2072 51.0334 26.1828 50.0613 24.6695 48.4952C23.5584 47.1611 22.9661 45.4709 23.0015 43.7351V43.7331Z" stroke="#377CFD" stroke-width="4" stroke-linecap="round" stroke-linejoin="round"/>
</svg>
