<svg width="80" height="81" viewBox="0 0 80 81" fill="none" xmlns="http://www.w3.org/2000/svg">
<circle opacity="0.1" cx="40" cy="40.1587" r="40" fill="#377CFD"/>
<path d="M38.1818 34.7041H45.4545C45.9368 34.7041 46.3992 34.5126 46.7402 34.1716C47.0812 33.8306 47.2727 33.3682 47.2727 32.886C47.2727 32.4038 47.0812 31.9413 46.7402 31.6003C46.3992 31.2593 45.9368 31.0678 45.4545 31.0678H41.8182V29.2496C41.8182 28.7674 41.6266 28.3049 41.2857 27.964C40.9447 27.623 40.4822 27.4314 40 27.4314C39.5178 27.4314 39.0553 27.623 38.7144 27.964C38.3734 28.3049 38.1818 28.7674 38.1818 29.2496V31.0678C36.7352 31.0678 35.3478 31.6425 34.3249 32.6654C33.302 33.6883 32.7273 35.0757 32.7273 36.5223C32.7273 37.969 33.302 39.3563 34.3249 40.3793C35.3478 41.4022 36.7352 41.9769 38.1818 41.9769H41.8182C42.3004 41.9769 42.7629 42.1684 43.1038 42.5094C43.4448 42.8504 43.6364 43.3128 43.6364 43.7951C43.6364 44.2773 43.4448 44.7397 43.1038 45.0807C42.7629 45.4217 42.3004 45.6132 41.8182 45.6132H34.5455C34.0632 45.6132 33.6008 45.8048 33.2598 46.1458C32.9188 46.4867 32.7273 46.9492 32.7273 47.4314C32.7273 47.9136 32.9188 48.3761 33.2598 48.7171C33.6008 49.058 34.0632 49.2496 34.5455 49.2496H38.1818V51.0678C38.1818 51.55 38.3734 52.0125 38.7144 52.3534C39.0553 52.6944 39.5178 52.886 40 52.886C40.4822 52.886 40.9447 52.6944 41.2857 52.3534C41.6266 52.0125 41.8182 51.55 41.8182 51.0678V49.2496C43.2648 49.2496 44.6522 48.6749 45.6751 47.652C46.6981 46.6291 47.2727 45.2417 47.2727 43.7951C47.2727 42.3484 46.6981 40.961 45.6751 39.9381C44.6522 38.9152 43.2648 38.3405 41.8182 38.3405H38.1818C37.6996 38.3405 37.2372 38.1489 36.8962 37.808C36.5552 37.467 36.3636 37.0045 36.3636 36.5223C36.3636 36.0401 36.5552 35.5777 36.8962 35.2367C37.2372 34.8957 37.6996 34.7041 38.1818 34.7041ZM40 20.1587C36.0444 20.1587 32.1776 21.3317 28.8886 23.5293C25.5996 25.7269 23.0362 28.8505 21.5224 32.505C20.0087 36.1595 19.6126 40.1809 20.3843 44.0605C21.156 47.9401 23.0608 51.5038 25.8579 54.3008C28.6549 57.0979 32.2186 59.0027 36.0982 59.7744C39.9778 60.5461 43.9992 60.15 47.6537 58.6363C51.3082 57.1225 54.4318 54.5591 56.6294 51.2701C58.827 47.9811 60 44.1143 60 40.1587C60 34.8544 57.8929 29.7673 54.1421 26.0166C50.3914 22.2658 45.3043 20.1587 40 20.1587ZM40 56.5223C36.7636 56.5223 33.5998 55.5626 30.9089 53.7646C28.2179 51.9665 26.1205 49.4108 24.882 46.4208C23.6435 43.4307 23.3194 40.1405 23.9508 36.9663C24.5822 33.7921 26.1407 30.8763 28.4292 28.5879C30.7177 26.2994 33.6334 24.7409 36.8076 24.1095C39.9819 23.4781 43.272 23.8021 46.2621 25.0407C49.2522 26.2792 51.8078 28.3766 53.6059 31.0675C55.4039 33.7585 56.3636 36.9223 56.3636 40.1587C56.3636 44.4986 54.6396 48.6607 51.5708 51.7295C48.5021 54.7983 44.3399 56.5223 40 56.5223Z" fill="#377CFD"/>
</svg>
