<svg width="80" height="81" viewBox="0 0 80 81" fill="none" xmlns="http://www.w3.org/2000/svg">
<circle opacity="0.1" cx="40" cy="40.1587" r="40" fill="#377CFD"/>
<path d="M31 48.1587C31.7956 48.1587 32.5587 47.8426 33.1213 47.28C33.6839 46.7174 34 45.9543 34 45.1587C34.0098 45.0589 34.0098 44.9585 34 44.8587L39.58 39.2787H40.5L43.72 42.4987V42.6587C43.72 43.4543 44.0361 44.2174 44.5987 44.78C45.1613 45.3426 45.9243 45.6587 46.72 45.6587C47.5156 45.6587 48.2787 45.3426 48.8413 44.78C49.4039 44.2174 49.72 43.4543 49.72 42.6587V42.4987L57 35.1587C57.5933 35.1587 58.1734 34.9827 58.6667 34.6531C59.1601 34.3235 59.5446 33.8549 59.7716 33.3067C59.9987 32.7586 60.0581 32.1554 59.9424 31.5734C59.8266 30.9915 59.5409 30.4569 59.1213 30.0374C58.7018 29.6178 58.1672 29.3321 57.5853 29.2163C57.0033 29.1006 56.4001 29.16 55.852 29.3871C55.3038 29.6141 54.8352 29.9986 54.5056 30.492C54.1759 30.9853 54 31.5653 54 32.1587C53.9902 32.2585 53.9902 32.3589 54 32.4587L46.78 39.6787H46.46L43 36.1587C43 35.363 42.6839 34.6 42.1213 34.0374C41.5587 33.4748 40.7956 33.1587 40 33.1587C39.2044 33.1587 38.4413 33.4748 37.8787 34.0374C37.3161 34.6 37 35.363 37 36.1587L31 42.1587C30.2044 42.1587 29.4413 42.4748 28.8787 43.0374C28.3161 43.6 28 44.363 28 45.1587C28 45.9543 28.3161 46.7174 28.8787 47.28C29.4413 47.8426 30.2044 48.1587 31 48.1587V48.1587ZM58 56.1587H24V22.1587C24 21.6283 23.7893 21.1196 23.4142 20.7445C23.0391 20.3694 22.5304 20.1587 22 20.1587C21.4696 20.1587 20.9609 20.3694 20.5858 20.7445C20.2107 21.1196 20 21.6283 20 22.1587V58.1587C20 58.6891 20.2107 59.1978 20.5858 59.5729C20.9609 59.948 21.4696 60.1587 22 60.1587H58C58.5304 60.1587 59.0391 59.948 59.4142 59.5729C59.7893 59.1978 60 58.6891 60 58.1587C60 57.6283 59.7893 57.1195 59.4142 56.7445C59.0391 56.3694 58.5304 56.1587 58 56.1587Z" fill="#377CFD"/>
</svg>
