<svg width="80" height="81" viewBox="0 0 80 81" fill="none" xmlns="http://www.w3.org/2000/svg">
<circle opacity="0.1" cx="40" cy="40.1587" r="40" fill="#377CFD"/>
<path d="M48.7985 23.4699C47.1264 22.0947 45.1684 21.1101 43.0673 20.588C40.9662 20.0659 38.7751 20.0194 36.6538 20.4519C33.8292 21.0225 31.2377 22.4192 29.2082 24.4649C27.1786 26.5106 25.8025 29.1131 25.2544 31.9422C24.8542 34.0634 24.9269 36.2467 25.4674 38.3366C26.008 40.4264 27.003 42.3713 28.3815 44.0324C29.6609 45.476 30.3942 47.3222 30.4541 49.2502V54.7045C30.4541 56.151 31.0288 57.5383 32.0516 58.5612C33.0745 59.5841 34.4618 60.1587 35.9083 60.1587H43.1806C44.6272 60.1587 46.0145 59.5841 47.0374 58.5612C48.0602 57.5383 48.6349 56.151 48.6349 54.7045V49.5957C48.6959 47.467 49.4779 45.4222 50.8529 43.796C53.2621 40.8158 54.3977 37.0052 54.0131 33.1923C53.6284 29.3795 51.7544 25.8725 48.7985 23.4336V23.4699ZM44.9987 54.7045C44.9987 55.1866 44.8072 55.6491 44.4662 55.99C44.1253 56.331 43.6628 56.5225 43.1806 56.5225H35.9083C35.4262 56.5225 34.9637 56.331 34.6228 55.99C34.2818 55.6491 34.0903 55.1866 34.0903 54.7045V52.8864H44.9987V54.7045ZM48.0349 41.5416C46.2068 43.7098 45.1403 46.4177 44.9987 49.2502H41.3626V43.796C41.3626 43.3138 41.171 42.8514 40.8301 42.5104C40.4891 42.1695 40.0267 41.9779 39.5445 41.9779C39.0623 41.9779 38.5999 42.1695 38.2589 42.5104C37.918 42.8514 37.7264 43.3138 37.7264 43.796V49.2502H34.0903C34.0423 46.4651 33.0121 43.7865 31.1814 41.687C29.9735 40.2399 29.1613 38.5044 28.8239 36.6498C28.4865 34.7952 28.6354 32.8849 29.2562 31.105C29.8769 29.3251 30.9483 27.7365 32.3659 26.494C33.7834 25.2515 35.4988 24.3975 37.3446 24.0154C38.931 23.6887 40.5702 23.7194 42.1432 24.1053C43.7162 24.4911 45.1836 25.2224 46.4387 26.246C47.6939 27.2697 48.7054 28.56 49.3997 30.0232C50.094 31.4865 50.4538 33.086 50.4529 34.7056C50.4664 37.1962 49.6113 39.6135 48.0349 41.5416V41.5416Z" fill="#377CFD"/>
</svg>