<svg width="80" height="81" viewBox="0 0 80 81" fill="none" xmlns="http://www.w3.org/2000/svg">
<circle opacity="0.1" cx="40" cy="40.1587" r="40" fill="#377CFD"/>
<path d="M51.7577 33.7251L42.8845 40.8678C42.0699 41.5075 41.0643 41.8552 40.0286 41.8552C38.993 41.8552 37.9873 41.5075 37.1728 40.8678L28.2246 33.7251" stroke="#377CFD" stroke-width="4" stroke-linecap="round" stroke-linejoin="round"/>
<path fill-rule="evenodd" clip-rule="evenodd" d="M30.167 22.1587H49.7773C52.6061 22.1899 55.2955 23.3859 57.2237 25.4659C58.1788 26.498 58.9155 27.7125 59.3894 29.0364C59.8634 30.3604 60.0649 31.7664 59.9818 33.1702V46.7485C60.0649 48.1522 59.8634 49.5583 59.3894 50.8822C58.9155 52.2062 58.1788 53.4207 57.2237 54.4528C56.2723 55.481 55.1213 56.3045 53.841 56.8731C52.5608 57.4417 51.178 57.7435 49.7773 57.76H30.167C24.0934 57.76 20 52.82 20 46.7485V33.1702C20 27.0987 24.0934 22.1587 30.167 22.1587Z" stroke="#377CFD" stroke-width="4" stroke-linecap="round" stroke-linejoin="round"/>
</svg>
