<svg width="80" height="81" viewBox="0 0 80 81" fill="none" xmlns="http://www.w3.org/2000/svg">
<circle opacity="0.1" cx="40" cy="40.1587" r="40" fill="#377CFD"/>
<path d="M50.1195 60.1587H26.0239C24.4263 60.1587 22.8941 59.524 21.7644 58.3943C20.6347 57.2646 20 55.7324 20 54.1348V34.0551C20 32.4574 20.6347 30.9252 21.7644 29.7955C22.8941 28.6658 24.4263 28.0312 26.0239 28.0312H28.0319C28.0657 26.3297 28.639 24.6829 29.6692 23.3284C30.6994 21.9738 32.1333 20.9815 33.7639 20.4945C35.3946 20.0076 37.1377 20.0511 38.742 20.6189C40.3463 21.1868 41.7288 22.2495 42.6901 23.6538C43.5905 24.9372 44.0806 26.4635 44.0956 28.0312H50.1195C50.6521 28.0312 51.1628 28.2427 51.5394 28.6193C51.916 28.9959 52.1275 29.5066 52.1275 30.0391V36.0631C53.829 36.0968 55.4758 36.6702 56.8303 37.7004C58.1849 38.7306 59.1772 40.1644 59.6642 41.7951C60.1511 43.4257 60.1076 45.1689 59.5397 46.7732C58.9719 48.3775 57.9092 49.76 56.5049 50.7212C55.2215 51.6217 53.6952 52.1118 52.1275 52.1268V58.1507C52.1275 58.6833 51.916 59.194 51.5394 59.5706C51.1628 59.9471 50.6521 60.1587 50.1195 60.1587ZM26.0239 32.0471C25.4914 32.0471 24.9806 32.2587 24.6041 32.6352C24.2275 33.0118 24.0159 33.5225 24.0159 34.0551V54.1348C24.0159 54.6673 24.2275 55.1781 24.6041 55.5546C24.9806 55.9312 25.4914 56.1428 26.0239 56.1428H48.1116V49.7574C48.1098 49.4354 48.1856 49.1178 48.3323 48.8312C48.4791 48.5447 48.6926 48.2976 48.9549 48.1109C49.2164 47.9244 49.5188 47.8034 49.8368 47.758C50.1547 47.7125 50.4789 47.744 50.7822 47.8498C51.3544 48.0833 51.9777 48.1635 52.5904 48.0825C53.2031 48.0015 53.7841 47.7621 54.276 47.388C54.7657 47.0894 55.1857 46.6894 55.5078 46.2149C55.8299 45.7404 56.0467 45.2024 56.1435 44.6371C56.2209 44.0669 56.1749 43.4868 56.0086 42.936C55.8423 42.3851 55.5596 41.8765 55.1796 41.4444C54.6657 40.8202 53.9659 40.3764 53.1821 40.1777C52.3983 39.9791 51.5715 40.0359 50.8223 40.34C50.5191 40.4458 50.1949 40.4773 49.8769 40.4319C49.559 40.3865 49.2566 40.2655 48.9951 40.079C48.7328 39.8923 48.5193 39.6452 48.3725 39.3586C48.2257 39.0721 48.15 38.7544 48.1517 38.4325V32.0471H41.7262C41.3962 32.0658 41.0667 32.0028 40.7669 31.8635C40.4671 31.7243 40.2063 31.5133 40.0077 31.2491C39.8091 30.9849 39.6787 30.6757 39.6282 30.3491C39.5777 30.0224 39.6087 29.6884 39.7183 29.3765C39.9517 28.8043 40.0319 28.181 39.9509 27.5683C39.8699 26.9556 39.6305 26.3746 39.2564 25.8826C38.96 25.379 38.554 24.9485 38.0685 24.623C37.5831 24.2976 37.0306 24.0856 36.4521 24.0026C35.8735 23.9197 35.2838 23.968 34.7264 24.144C34.1691 24.32 33.6585 24.6191 33.2325 25.0192C32.8369 25.4116 32.5273 25.882 32.3233 26.4006C32.1193 26.9191 32.0255 27.4744 32.0478 28.0312C32.0525 28.4917 32.1409 28.9476 32.3089 29.3765C32.415 29.6802 32.4467 30.0049 32.4012 30.3233C32.3556 30.6417 32.2343 30.9445 32.0473 31.2063C31.8604 31.468 31.6133 31.681 31.3268 31.8274C31.0404 31.9737 30.7229 32.0491 30.4013 32.0471H26.0239Z" fill="#377CFD"/>
</svg>